<svg xmlns="http://www.w3.org/2000/svg" width="256" height="384" viewBox="0 0 256 384" shape-rendering="crispEdges">
  <defs>
    <g id="back">
      <rect x="5" y="44" width="22" height="3" fill="#2b2028" opacity=".55"/>
      <rect x="11" y="0" width="10" height="5" fill="#623126"/>
      <rect x="8" y="4" width="16" height="11" fill="#7b3f2d"/>
      <rect x="10" y="7" width="12" height="3" fill="#a75a3c"/>
      <rect x="7" y="15" width="18" height="9" fill="#f0c49a"/>
      <rect x="6" y="18" width="20" height="7" fill="#f7d2a5"/>
      <rect x="7" y="24" width="18" height="12" fill="#eee0c4"/>
      <rect x="6" y="24" width="4" height="11" fill="#60734a"/>
      <rect x="22" y="24" width="4" height="11" fill="#60734a"/>
      <rect x="9" y="34" width="6" height="10" fill="#53643f"/>
      <rect x="17" y="34" width="6" height="10" fill="#53643f"/>
      <rect x="8" y="43" width="8" height="4" fill="#68402f"/>
      <rect x="16" y="43" width="9" height="4" fill="#68402f"/>
      <rect x="21" y="25" width="6" height="8" fill="#9a5c35"/>
      <rect x="23" y="27" width="3" height="2" fill="#e1ae62"/>
    </g>
    <g id="back-step">
      <rect x="5" y="44" width="22" height="3" fill="#2b2028" opacity=".55"/>
      <rect x="11" y="0" width="10" height="5" fill="#623126"/>
      <rect x="8" y="4" width="16" height="11" fill="#7b3f2d"/>
      <rect x="10" y="7" width="12" height="3" fill="#a75a3c"/>
      <rect x="7" y="15" width="18" height="9" fill="#f0c49a"/>
      <rect x="6" y="18" width="20" height="7" fill="#f7d2a5"/>
      <rect x="7" y="24" width="18" height="12" fill="#eee0c4"/>
      <rect x="6" y="24" width="4" height="11" fill="#60734a"/>
      <rect x="22" y="24" width="4" height="11" fill="#60734a"/>
      <rect x="7" y="34" width="7" height="10" fill="#53643f"/>
      <rect x="18" y="34" width="6" height="10" fill="#53643f"/>
      <rect x="6" y="43" width="9" height="4" fill="#68402f"/>
      <rect x="18" y="43" width="8" height="4" fill="#68402f"/>
      <rect x="21" y="25" width="6" height="8" fill="#9a5c35"/>
      <rect x="23" y="27" width="3" height="2" fill="#e1ae62"/>
    </g>
    <g id="side">
      <rect x="5" y="44" width="22" height="3" fill="#2b2028" opacity=".55"/>
      <rect x="10" y="1" width="12" height="5" fill="#623126"/>
      <rect x="8" y="5" width="15" height="11" fill="#7b3f2d"/>
      <rect x="17" y="7" width="6" height="4" fill="#a75a3c"/>
      <rect x="13" y="16" width="10" height="9" fill="#f7d2a5"/>
      <rect x="20" y="18" width="4" height="4" fill="#9a5c35"/>
      <rect x="7" y="24" width="17" height="12" fill="#eee0c4"/>
      <rect x="6" y="24" width="5" height="11" fill="#60734a"/>
      <rect x="18" y="24" width="6" height="12" fill="#53643f"/>
      <rect x="9" y="35" width="7" height="9" fill="#53643f"/>
      <rect x="18" y="35" width="6" height="9" fill="#53643f"/>
      <rect x="8" y="43" width="8" height="4" fill="#68402f"/>
      <rect x="18" y="43" width="8" height="4" fill="#68402f"/>
      <rect x="22" y="25" width="5" height="8" fill="#9a5c35"/>
      <rect x="23" y="27" width="3" height="2" fill="#e1ae62"/>
    </g>
    <g id="side-step">
      <rect x="5" y="44" width="22" height="3" fill="#2b2028" opacity=".55"/>
      <rect x="10" y="1" width="12" height="5" fill="#623126"/>
      <rect x="8" y="5" width="15" height="11" fill="#7b3f2d"/>
      <rect x="17" y="7" width="6" height="4" fill="#a75a3c"/>
      <rect x="13" y="16" width="10" height="9" fill="#f7d2a5"/>
      <rect x="20" y="18" width="4" height="4" fill="#9a5c35"/>
      <rect x="7" y="24" width="17" height="12" fill="#eee0c4"/>
      <rect x="6" y="24" width="5" height="11" fill="#60734a"/>
      <rect x="18" y="24" width="6" height="12" fill="#53643f"/>
      <rect x="7" y="35" width="8" height="9" fill="#53643f"/>
      <rect x="19" y="35" width="6" height="9" fill="#53643f"/>
      <rect x="6" y="43" width="9" height="4" fill="#68402f"/>
      <rect x="20" y="43" width="7" height="4" fill="#68402f"/>
      <rect x="22" y="25" width="5" height="8" fill="#9a5c35"/>
      <rect x="23" y="27" width="3" height="2" fill="#e1ae62"/>
    </g>
    <g id="front">
      <rect x="5" y="44" width="22" height="3" fill="#2b2028" opacity=".55"/>
      <rect x="11" y="1" width="10" height="4" fill="#623126"/>
      <rect x="8" y="4" width="16" height="10" fill="#7b3f2d"/>
      <rect x="10" y="8" width="12" height="11" fill="#f7d2a5"/>
      <rect x="8" y="10" width="4" height="8" fill="#7b3f2d"/>
      <rect x="20" y="10" width="4" height="8" fill="#7b3f2d"/>
      <rect x="12" y="14" width="3" height="3" fill="#33242a"/>
      <rect x="18" y="14" width="3" height="3" fill="#33242a"/>
      <rect x="14" y="18" width="4" height="2" fill="#c27662"/>
      <rect x="7" y="20" width="18" height="16" fill="#eee0c4"/>
      <rect x="6" y="23" width="5" height="11" fill="#60734a"/>
      <rect x="21" y="23" width="5" height="11" fill="#60734a"/>
      <rect x="10" y="21" width="4" height="15" fill="#53643f"/>
      <rect x="18" y="21" width="4" height="15" fill="#53643f"/>
      <rect x="13" y="25" width="6" height="5" fill="#6f8155"/>
      <rect x="9" y="35" width="7" height="9" fill="#53643f"/>
      <rect x="17" y="35" width="7" height="9" fill="#53643f"/>
      <rect x="8" y="43" width="8" height="4" fill="#68402f"/>
      <rect x="17" y="43" width="9" height="4" fill="#68402f"/>
    </g>
    <g id="front-step">
      <rect x="5" y="44" width="22" height="3" fill="#2b2028" opacity=".55"/>
      <rect x="11" y="1" width="10" height="4" fill="#623126"/>
      <rect x="8" y="4" width="16" height="10" fill="#7b3f2d"/>
      <rect x="10" y="8" width="12" height="11" fill="#f7d2a5"/>
      <rect x="8" y="10" width="4" height="8" fill="#7b3f2d"/>
      <rect x="20" y="10" width="4" height="8" fill="#7b3f2d"/>
      <rect x="12" y="14" width="3" height="3" fill="#33242a"/>
      <rect x="18" y="14" width="3" height="3" fill="#33242a"/>
      <rect x="14" y="18" width="4" height="2" fill="#c27662"/>
      <rect x="7" y="20" width="18" height="16" fill="#eee0c4"/>
      <rect x="6" y="23" width="5" height="11" fill="#60734a"/>
      <rect x="21" y="23" width="5" height="11" fill="#60734a"/>
      <rect x="10" y="21" width="4" height="15" fill="#53643f"/>
      <rect x="18" y="21" width="4" height="15" fill="#53643f"/>
      <rect x="13" y="25" width="6" height="5" fill="#6f8155"/>
      <rect x="7" y="35" width="8" height="9" fill="#53643f"/>
      <rect x="19" y="35" width="6" height="9" fill="#53643f"/>
      <rect x="6" y="43" width="9" height="4" fill="#68402f"/>
      <rect x="19" y="43" width="8" height="4" fill="#68402f"/>
    </g>
  </defs>
  <use href="#back" transform="translate(0 0) scale(2)"/><use href="#back-step" transform="translate(64 0) scale(2)"/><use href="#back" transform="translate(128 0) scale(2)"/><use href="#back-step" transform="translate(192 0) scale(2)"/>
  <use href="#side" transform="translate(0 96) scale(2)"/><use href="#side-step" transform="translate(64 96) scale(2)"/><use href="#side" transform="translate(128 96) scale(2)"/><use href="#side-step" transform="translate(192 96) scale(2)"/>
  <use href="#side" transform="translate(0 192) scale(2)"/><use href="#side-step" transform="translate(64 192) scale(2)"/><use href="#side" transform="translate(128 192) scale(2)"/><use href="#side-step" transform="translate(192 192) scale(2)"/>
  <use href="#front" transform="translate(0 288) scale(2)"/><use href="#front-step" transform="translate(64 288) scale(2)"/><use href="#front" transform="translate(128 288) scale(2)"/><use href="#front-step" transform="translate(192 288) scale(2)"/>
</svg>
