<svg xmlns="http://www.w3.org/2000/svg" width="256" height="384" viewBox="0 0 256 384" shape-rendering="crispEdges">
  <defs>
    <g id="back">
      <rect x="5" y="44" width="22" height="3" fill="#211d25" opacity=".55"/>
      <rect x="8" y="3" width="16" height="13" fill="#4a3029"/><rect x="11" y="1" width="7" height="5" fill="#5d3a2d"/>
      <rect x="7" y="16" width="18" height="8" fill="#d89570"/><rect x="7" y="24" width="18" height="12" fill="#d69a4f"/>
      <rect x="6" y="24" width="5" height="11" fill="#bd7d3f"/><rect x="21" y="24" width="5" height="11" fill="#bd7d3f"/>
      <rect x="10" y="34" width="6" height="10" fill="#3f7880"/><rect x="17" y="34" width="6" height="10" fill="#3f7880"/>
      <rect x="8" y="43" width="8" height="4" fill="#68402f"/><rect x="17" y="43" width="8" height="4" fill="#68402f"/>
      <rect x="21" y="25" width="6" height="8" fill="#984b36"/><rect x="23" y="27" width="3" height="2" fill="#d4aa64"/>
    </g>
    <g id="back-step">
      <rect x="5" y="44" width="22" height="3" fill="#211d25" opacity=".55"/>
      <rect x="8" y="3" width="16" height="13" fill="#4a3029"/><rect x="11" y="1" width="7" height="5" fill="#5d3a2d"/>
      <rect x="7" y="16" width="18" height="8" fill="#d89570"/><rect x="7" y="24" width="18" height="12" fill="#d69a4f"/>
      <rect x="6" y="24" width="5" height="11" fill="#bd7d3f"/><rect x="21" y="24" width="5" height="11" fill="#bd7d3f"/>
      <rect x="7" y="34" width="7" height="10" fill="#3f7880"/><rect x="19" y="34" width="6" height="10" fill="#3f7880"/>
      <rect x="6" y="43" width="9" height="4" fill="#68402f"/><rect x="19" y="43" width="8" height="4" fill="#68402f"/>
      <rect x="21" y="25" width="6" height="8" fill="#984b36"/><rect x="23" y="27" width="3" height="2" fill="#d4aa64"/>
    </g>
    <g id="side">
      <rect x="5" y="44" width="22" height="3" fill="#211d25" opacity=".55"/>
      <rect x="8" y="4" width="16" height="11" fill="#4a3029"/><rect x="18" y="2" width="6" height="5" fill="#5d3a2d"/>
      <rect x="13" y="15" width="11" height="10" fill="#d89570"/><rect x="20" y="17" width="4" height="3" fill="#5d3a2d"/>
      <rect x="7" y="24" width="17" height="12" fill="#d69a4f"/><rect x="6" y="24" width="5" height="11" fill="#bd7d3f"/>
      <rect x="18" y="24" width="6" height="12" fill="#bd7d3f"/><rect x="9" y="35" width="7" height="9" fill="#3f7880"/><rect x="18" y="35" width="6" height="9" fill="#3f7880"/>
      <rect x="8" y="43" width="8" height="4" fill="#68402f"/><rect x="18" y="43" width="8" height="4" fill="#68402f"/>
      <rect x="22" y="25" width="5" height="8" fill="#984b36"/><rect x="23" y="27" width="3" height="2" fill="#d4aa64"/>
    </g>
    <g id="side-step">
      <rect x="5" y="44" width="22" height="3" fill="#211d25" opacity=".55"/>
      <rect x="8" y="4" width="16" height="11" fill="#4a3029"/><rect x="18" y="2" width="6" height="5" fill="#5d3a2d"/>
      <rect x="13" y="15" width="11" height="10" fill="#d89570"/><rect x="20" y="17" width="4" height="3" fill="#5d3a2d"/>
      <rect x="7" y="24" width="17" height="12" fill="#d69a4f"/><rect x="6" y="24" width="5" height="11" fill="#bd7d3f"/>
      <rect x="18" y="24" width="6" height="12" fill="#bd7d3f"/><rect x="7" y="35" width="8" height="9" fill="#3f7880"/><rect x="19" y="35" width="6" height="9" fill="#3f7880"/>
      <rect x="6" y="43" width="9" height="4" fill="#68402f"/><rect x="20" y="43" width="7" height="4" fill="#68402f"/>
      <rect x="22" y="25" width="5" height="8" fill="#984b36"/><rect x="23" y="27" width="3" height="2" fill="#d4aa64"/>
    </g>
    <g id="front">
      <rect x="5" y="44" width="22" height="3" fill="#211d25" opacity=".55"/>
      <rect x="8" y="4" width="16" height="11" fill="#4a3029"/><rect x="11" y="2" width="7" height="5" fill="#5d3a2d"/>
      <rect x="10" y="10" width="13" height="10" fill="#d89570"/><rect x="8" y="9" width="5" height="7" fill="#4a3029"/><rect x="20" y="10" width="5" height="7" fill="#4a3029"/>
      <rect x="12" y="14" width="3" height="3" fill="#33242a"/><rect x="19" y="14" width="3" height="3" fill="#33242a"/><rect x="15" y="18" width="4" height="2" fill="#a95248"/>
      <rect x="7" y="20" width="18" height="16" fill="#d69a4f"/><rect x="6" y="23" width="5" height="11" fill="#bd7d3f"/><rect x="21" y="23" width="5" height="11" fill="#bd7d3f"/>
      <rect x="13" y="23" width="6" height="5" fill="#e2b260"/><rect x="10" y="35" width="6" height="9" fill="#3f7880"/><rect x="17" y="35" width="7" height="9" fill="#3f7880"/>
      <rect x="8" y="43" width="8" height="4" fill="#68402f"/><rect x="17" y="43" width="9" height="4" fill="#68402f"/><rect x="21" y="24" width="6" height="9" fill="#984b36"/>
    </g>
    <g id="front-step">
      <rect x="5" y="44" width="22" height="3" fill="#211d25" opacity=".55"/>
      <rect x="8" y="4" width="16" height="11" fill="#4a3029"/><rect x="11" y="2" width="7" height="5" fill="#5d3a2d"/>
      <rect x="10" y="10" width="13" height="10" fill="#d89570"/><rect x="8" y="9" width="5" height="7" fill="#4a3029"/><rect x="20" y="10" width="5" height="7" fill="#4a3029"/>
      <rect x="12" y="14" width="3" height="3" fill="#33242a"/><rect x="19" y="14" width="3" height="3" fill="#33242a"/><rect x="15" y="18" width="4" height="2" fill="#a95248"/>
      <rect x="7" y="20" width="18" height="16" fill="#d69a4f"/><rect x="6" y="23" width="5" height="11" fill="#bd7d3f"/><rect x="21" y="23" width="5" height="11" fill="#bd7d3f"/>
      <rect x="13" y="23" width="6" height="5" fill="#e2b260"/><rect x="7" y="35" width="7" height="9" fill="#3f7880"/><rect x="19" y="35" width="6" height="9" fill="#3f7880"/>
      <rect x="6" y="43" width="9" height="4" fill="#68402f"/><rect x="19" y="43" width="8" height="4" fill="#68402f"/><rect x="21" y="24" width="6" height="9" fill="#984b36"/>
    </g>
  </defs>
  <use href="#back" transform="translate(0 0) scale(2)"/><use href="#back-step" transform="translate(64 0) scale(2)"/><use href="#back" transform="translate(128 0) scale(2)"/><use href="#back-step" transform="translate(192 0) scale(2)"/>
  <use href="#side" transform="translate(0 96) scale(2)"/><use href="#side-step" transform="translate(64 96) scale(2)"/><use href="#side" transform="translate(128 96) scale(2)"/><use href="#side-step" transform="translate(192 96) scale(2)"/>
  <use href="#side" transform="translate(0 192) scale(2)"/><use href="#side-step" transform="translate(64 192) scale(2)"/><use href="#side" transform="translate(128 192) scale(2)"/><use href="#side-step" transform="translate(192 192) scale(2)"/>
  <use href="#front" transform="translate(0 288) scale(2)"/><use href="#front-step" transform="translate(64 288) scale(2)"/><use href="#front" transform="translate(128 288) scale(2)"/><use href="#front-step" transform="translate(192 288) scale(2)"/>
</svg>
